<svg width="32" height="32" viewBox="0 0 32 32" fill="none" xmlns="http://www.w3.org/2000/svg">
<rect width="32" height="32" fill="#011C40"/>
<path fill-rule="evenodd" clip-rule="evenodd" d="M3.3485 20.7434L8.65945 11.9414L10.1124 12.8949L13.5696 6L15.7239 9.15417L16.5256 8.34726L19.632 13.1884L21.8365 9.96091L27.9991 20.7434L22.062 11.5748L21.1601 15.4256L21.9868 18.4697L16.6759 9.48422L16.6184 12.5501L19.632 20.7434L13.9953 8.05377L15.6238 14.9121L13.3441 8.23717L12.0915 12.675L12.3419 9.7775L9.21049 20.23L9.58617 15.8289L8.28356 14.0687L3.3485 20.7434Z" fill="#F9FBFD"/>
<path fill-rule="evenodd" clip-rule="evenodd" d="M29.7846 22.1201C21.3758 13.7817 8.28778 25.2452 3 20.8245C8.81361 27.0891 22.4022 16.4989 29.7846 22.1201Z" fill="#F9FBFD"/>
<path fill-rule="evenodd" clip-rule="evenodd" d="M30 22.7759C23.4026 17.6133 13.5905 24.7976 8.56158 23.134C14.0109 26.3818 24.1557 19.1855 30 22.7759Z" fill="#F9FBFD"/>
</svg>
